<svg width="32" height="32" viewBox="0 0 32 32" fill="none" xmlns="http://www.w3.org/2000/svg">
<rect width="32" height="32" rx="6" fill="#676C7D"/>
<path opacity="0.01" fill-rule="evenodd" clip-rule="evenodd" d="M0 32H32V0H0V32Z" fill="#FEFEFE" fill-opacity="0.01"/>
<path fill-rule="evenodd" clip-rule="evenodd" d="M15.36 8.95999C14.3014 8.95999 13.44 9.82143 13.44 10.88V12.8134C13.44 14.2259 14.5881 15.3734 16 15.3734C17.4118 15.3734 18.56 14.2259 18.56 12.8134V10.88C18.56 9.82143 17.6985 8.95999 16.64 8.95999H15.36ZM19.84 12.8134C19.84 14.9312 18.1177 16.6534 16 16.6534C13.8822 16.6534 12.16 14.9312 12.16 12.8134V10.88C12.16 9.11551 13.5955 7.67999 15.36 7.67999H16.64C18.4044 7.67999 19.84 9.11551 19.84 10.88V12.8134ZM17.3499 17.6715C17.716 16.9541 18.4968 16.5464 19.3045 16.6821C22.6875 17.2421 24.9602 19.8078 24.9602 23.0667V23.5397L24.509 23.6786C21.7493 24.5291 18.8866 24.9598 16.0002 24.9598C13.1131 24.9598 10.2504 24.5291 7.49136 23.6786L7.04016 23.5397V23.0667C7.04016 19.8078 9.3128 17.2421 12.6958 16.6821C13.5048 16.5464 14.2837 16.9541 14.6498 17.6715C14.8712 18.1048 15.2853 18.6219 16.0002 18.6219C16.715 18.6219 17.1285 18.1048 17.3499 17.6715ZM8.33943 22.5957C8.53975 20.1803 10.2869 18.3781 12.9045 17.9441C13.1586 17.9064 13.3935 18.0248 13.51 18.2539C14.0444 19.3016 14.9525 19.9019 16.0002 19.9019C17.0473 19.9019 17.9554 19.3016 18.4898 18.2539C18.6069 18.0254 18.845 17.907 19.0959 17.9441C21.7129 18.3781 23.4601 20.1803 23.6604 22.5957C18.678 24.0357 13.3218 24.0357 8.33943 22.5957Z" fill="white"/>
</svg>
