<svg width="24" height="24" viewBox="0 0 24 24" fill="none" xmlns="http://www.w3.org/2000/svg">
<path fill-rule="evenodd" clip-rule="evenodd" d="M11.5 2C6.256 2 2 6.256 2 11.5C2 16.744 6.256 21 11.5 21C16.744 21 21 16.744 21 11.5C21 6.256 16.744 2 11.5 2Z" fill="white" stroke="#BFC5D2" stroke-width="1.2"/>
<path fill-rule="evenodd" clip-rule="evenodd" d="M12.1072 17.5H10.4643V15.8571H12.1072V17.5Z" fill="#BFC5D2"/>
<path fill-rule="evenodd" clip-rule="evenodd" d="M13.8075 11.1339L13.0682 11.8896C12.4768 12.4893 12.1071 12.9821 12.1071 14.2143H10.4643V13.8036C10.4643 12.9 10.8339 12.0786 11.4254 11.4789L12.4439 10.4439C12.7479 10.1482 12.9286 9.7375 12.9286 9.28571C12.9286 8.38214 12.1893 7.64286 11.2857 7.64286C10.3821 7.64286 9.64286 8.38214 9.64286 9.28571H8C8 7.47036 9.47036 6 11.2857 6C13.1011 6 14.5714 7.47036 14.5714 9.28571C14.5714 10.0086 14.2757 10.6657 13.8075 11.1339Z" fill="#BFC5D2"/>
</svg>
