<svg width="24" height="24" viewBox="0 0 24 24" fill="none" xmlns="http://www.w3.org/2000/svg">
<path fill-rule="evenodd" clip-rule="evenodd" d="M6.375 4H20.125C21.1588 4 22 4.86144 22 5.92V16.16C22 17.2186 21.1588 18.08 20.125 18.08H18.875C18.875 19.1386 18.0338 20 17 20H3.875C2.84125 20 2 19.1386 2 18.08V9.12C2 8.06144 2.84125 7.2 3.875 7.2H4.5V5.92C4.5 4.86144 5.34125 4 6.375 4ZM17 18.72C17.345 18.72 17.625 18.4333 17.625 18.08V12.32H3.25003V18.08C3.25003 18.4333 3.53003 18.72 3.87503 18.72H17ZM7 16.8H4.5V15.52H7V16.8ZM17.625 11.04H3.25003V9.11998C3.25003 8.7667 3.53003 8.47998 3.87503 8.47998H17C17.345 8.47998 17.625 8.7667 17.625 9.11998V11.04ZM20.75 16.16C20.75 16.5133 20.47 16.8 20.125 16.8H18.875V9.12003C18.875 8.06147 18.0338 7.20003 17 7.20003H5.75003V5.92003C5.75003 5.56675 6.03003 5.28003 6.37503 5.28003H20.125C20.47 5.28003 20.75 5.56675 20.75 5.92003V16.16Z" fill="#BFC5D2"/>
</svg>
