<svg width="29" height="26" viewBox="0 0 29 26" fill="none" xmlns="http://www.w3.org/2000/svg">
<path fill-rule="evenodd" clip-rule="evenodd" d="M11.0002 12.1L25.4462 12.1L23.5722 10.192L25.0702 9L29.0002 13L25.0702 17L23.5722 15.808L25.4462 13.9L11.0002 13.9L11.0002 12.1ZM21 17L21 23C21 24.654 19.654 26 18 26L2.99998 26C1.34598 26 -1.71661e-05 24.654 -1.71661e-05 23L-1.71661e-05 3C-1.71661e-05 1.346 1.34598 0 2.99998 0L18 0C19.654 0 21 1.346 21 3L21 9H19L19 3C19 2.448 18.552 2 18 2L2.99998 2C2.44798 2 1.99998 2.448 1.99998 3L1.99998 23C1.99998 23.552 2.44798 24 2.99998 24L18 24C18.552 24 19 23.552 19 23L19 17H21Z" fill="#2E384D"/>
</svg>
