<svg width="24" height="24" viewBox="0 0 24 24" fill="none" xmlns="http://www.w3.org/2000/svg">
<path fill-rule="evenodd" clip-rule="evenodd" d="M3.09999 2.29999C2.65816 2.29999 2.29999 2.65816 2.29999 3.09999V9.89999C2.29999 10.3418 2.65816 10.7 3.09999 10.7H9.89999C10.3418 10.7 10.7 10.3418 10.7 9.89999V3.09999C10.7 2.65816 10.3418 2.29999 9.89999 2.29999H3.09999ZM3.09999 13.3C2.65816 13.3 2.29999 13.6582 2.29999 14.1V20.9C2.29999 21.3418 2.65816 21.7 3.09999 21.7H9.89999C10.3418 21.7 10.7 21.3418 10.7 20.9V14.1C10.7 13.6582 10.3418 13.3 9.89999 13.3H3.09999ZM13.3 3.09999C13.3 2.65816 13.6582 2.29999 14.1 2.29999H20.9C21.3418 2.29999 21.7 2.65816 21.7 3.09999V9.89999C21.7 10.3418 21.3418 10.7 20.9 10.7H14.1C13.6582 10.7 13.3 10.3418 13.3 9.89999V3.09999ZM14.1 13.3C13.6582 13.3 13.3 13.6582 13.3 14.1V20.9C13.3 21.3418 13.6582 21.7 14.1 21.7H20.9C21.3418 21.7 21.7 21.3418 21.7 20.9V14.1C21.7 13.6582 21.3418 13.3 20.9 13.3H14.1ZM14.75 14.75H20.25V20.25H14.75V14.75ZM20.25 3.74998H14.75V9.24998H20.25V3.74998ZM3.74999 3.74998H9.24999V9.24998H3.74999V3.74998ZM9.24999 14.75H3.74999V20.25H9.24999V14.75Z" fill="#BFC5D2"/>
<mask id="mask0" mask-type="alpha" maskUnits="userSpaceOnUse" x="2" y="2" width="20" height="20">
<path fill-rule="evenodd" clip-rule="evenodd" d="M3.09999 2.29999C2.65816 2.29999 2.29999 2.65816 2.29999 3.09999V9.89999C2.29999 10.3418 2.65816 10.7 3.09999 10.7H9.89999C10.3418 10.7 10.7 10.3418 10.7 9.89999V3.09999C10.7 2.65816 10.3418 2.29999 9.89999 2.29999H3.09999ZM3.09999 13.3C2.65816 13.3 2.29999 13.6582 2.29999 14.1V20.9C2.29999 21.3418 2.65816 21.7 3.09999 21.7H9.89999C10.3418 21.7 10.7 21.3418 10.7 20.9V14.1C10.7 13.6582 10.3418 13.3 9.89999 13.3H3.09999ZM13.3 3.09999C13.3 2.65816 13.6582 2.29999 14.1 2.29999H20.9C21.3418 2.29999 21.7 2.65816 21.7 3.09999V9.89999C21.7 10.3418 21.3418 10.7 20.9 10.7H14.1C13.6582 10.7 13.3 10.3418 13.3 9.89999V3.09999ZM14.1 13.3C13.6582 13.3 13.3 13.6582 13.3 14.1V20.9C13.3 21.3418 13.6582 21.7 14.1 21.7H20.9C21.3418 21.7 21.7 21.3418 21.7 20.9V14.1C21.7 13.6582 21.3418 13.3 20.9 13.3H14.1ZM14.75 14.75H20.25V20.25H14.75V14.75ZM20.25 3.74998H14.75V9.24998H20.25V3.74998ZM3.74999 3.74998H9.24999V9.24998H3.74999V3.74998ZM9.24999 14.75H3.74999V20.25H9.24999V14.75Z" fill="white"/>
</mask>
<g mask="url(#mask0)">
</g>
</svg>
